<?xml version="1.0" encoding="UTF-8"?>
<!DOCTYPE svg PUBLIC "-//W3C//DTD SVG 1.1//EN" "http://www.w3.org/Graphics/SVG/1.1/DTD/svg11.dtd">
<svg xmlns="http://www.w3.org/2000/svg" version="1.1" width="308px" height="199px" style="shape-rendering:geometricPrecision; text-rendering:geometricPrecision; image-rendering:optimizeQuality; fill-rule:evenodd; clip-rule:evenodd" xmlns:xlink="http://www.w3.org/1999/xlink">
<g><path style="opacity:1" fill="#f5f5f5" d="M -0.5,-0.5 C 1.5,-0.5 3.5,-0.5 5.5,-0.5C 3.16667,1.16667 1.16667,3.16667 -0.5,5.5C -0.5,3.5 -0.5,1.5 -0.5,-0.5 Z"/></g>
<g><path style="opacity:1" fill="#333333" d="M 5.5,-0.5 C 103.5,-0.5 201.5,-0.5 299.5,-0.5C 302.397,0.55813 304.564,2.55813 306,5.5C 306.832,67.668 306.665,129.668 305.5,191.5C 305.832,134.331 305.499,77.3309 304.5,20.5C 203.5,20.5 102.5,20.5 1.5,20.5C 0.500993,76.9975 0.16766,133.664 0.5,190.5C 0.166667,190.5 -0.166667,190.5 -0.5,190.5C -0.5,128.833 -0.5,67.1667 -0.5,5.5C 1.16667,3.16667 3.16667,1.16667 5.5,-0.5 Z"/></g>
<g><path style="opacity:1" fill="#2bb33f" d="M 25.5,7.5 C 26.8333,7.5 28.1667,7.5 29.5,7.5C 29.7778,9.34642 29.1112,10.6798 27.5,11.5C 25.8888,10.6798 25.2222,9.34642 25.5,7.5 Z"/></g>
<g><path style="opacity:1" fill="#db5951" d="M 9.5,7.5 C 12.1662,7.06577 13.3329,8.06577 13,10.5C 10.3422,11.694 9.17556,10.694 9.5,7.5 Z"/></g>
<g><path style="opacity:1" fill="#dda82f" d="M 17.5,7.5 C 20.1662,7.06577 21.3329,8.06577 21,10.5C 18.3422,11.694 17.1756,10.694 17.5,7.5 Z"/></g>
<g><path style="opacity:1" fill="#2d2d2d" d="M 1.5,20.5 C 1.16766,77.3358 1.50099,134.002 2.5,190.5C 3.28229,192.451 4.61562,193.951 6.5,195C 104.167,195.667 201.833,195.667 299.5,195C 301.751,194.252 303.084,192.752 303.5,190.5C 304.499,134.002 304.832,77.3358 304.5,20.5C 305.499,77.3309 305.832,134.331 305.5,191.5C 304.746,194.091 303.079,195.924 300.5,197C 201.833,197.667 103.167,197.667 4.5,197C 2.07714,195.429 0.743808,193.263 0.5,190.5C 0.16766,133.664 0.500993,76.9975 1.5,20.5 Z"/></g>
<g><path style="opacity:1" fill="#9c9c9c" d="M 1.5,20.5 C 102.5,20.5 203.5,20.5 304.5,20.5C 304.832,77.3358 304.499,134.002 303.5,190.5C 303.5,134.167 303.5,77.8333 303.5,21.5C 203.167,21.5 102.833,21.5 2.5,21.5C 2.5,77.8333 2.5,134.167 2.5,190.5C 1.50099,134.002 1.16766,77.3358 1.5,20.5 Z"/></g>
<g><path style="opacity:1" fill="#e5e5e5" d="M 303.5,190.5 C 303.084,192.752 301.751,194.252 299.5,195C 201.833,195.667 104.167,195.667 6.5,195C 4.61562,193.951 3.28229,192.451 2.5,190.5C 2.5,134.167 2.5,77.8333 2.5,21.5C 102.833,21.5 203.167,21.5 303.5,21.5C 303.5,77.8333 303.5,134.167 303.5,190.5 Z"/></g>
<g><path style="opacity:1" fill="#154fae" d="M 40.5,80.5 C 51.312,59.2592 68.6454,50.4259 92.5,54C 110.235,58.7347 121.735,69.9014 127,87.5C 130.385,121.945 114.885,140.945 80.5,144.5C 57.4971,141.669 42.9971,129.002 37,106.5C 35.5384,97.3286 36.7051,88.6619 40.5,80.5 Z"/></g>
<g><path style="opacity:1" fill="#dee0e4" d="M 102.5,117.5 C 107.544,117.173 112.544,117.506 117.5,118.5C 112.852,127.959 105.518,133.792 95.5,136C 99.3152,130.387 101.649,124.22 102.5,117.5 Z"/></g>
<g><path style="opacity:1" fill="#d9dde2" d="M 84.5,117.5 C 88.8333,117.5 93.1667,117.5 97.5,117.5C 96.3119,126.221 92.3119,133.221 85.5,138.5C 84.503,131.532 84.1697,124.532 84.5,117.5 Z"/></g>
<g><path style="opacity:1" fill="#e2e3e5" d="M 67.5,117.5 C 71.5,117.5 75.5,117.5 79.5,117.5C 79.8303,124.532 79.497,131.532 78.5,138.5C 71.9477,133.064 68.281,126.064 67.5,117.5 Z"/></g>
<g><path style="opacity:1" fill="#dee0e4" d="M 46.5,118.5 C 51.3477,117.186 56.3477,117.186 61.5,118.5C 63.5504,125.178 66.0504,131.511 69,137.5C 59.4969,133.494 51.9969,127.16 46.5,118.5 Z"/></g>
<g><path style="opacity:1" fill="#0f0f0f" d="M 230.5,89.5 C 233.666,91.511 235,94.511 234.5,98.5C 233.68,108.491 228.347,114.658 218.5,117C 214.668,117.762 211.002,117.262 207.5,115.5C 206.479,114.998 206.312,114.332 207,113.5C 214.417,105.747 222.083,98.4134 230,91.5C 230.464,90.9056 230.631,90.2389 230.5,89.5 Z"/></g>
<g><path style="opacity:1" fill="#e2e3e5" d="M 120.5,84.5 C 123.134,93.4559 123.134,102.456 120.5,111.5C 115.208,112.495 109.875,112.828 104.5,112.5C 104.5,111.5 104.5,110.5 104.5,109.5C 104.5,101.833 104.5,94.1667 104.5,86.5C 109.396,84.5539 114.729,83.8872 120.5,84.5 Z"/></g>
<g><path style="opacity:1" fill="#e2e3e5" d="M 79.5,84.5 C 79.5,93.8333 79.5,103.167 79.5,112.5C 74.8333,112.5 70.1667,112.5 65.5,112.5C 65.7678,110.901 65.4345,109.568 64.5,108.5C 64.264,100.458 64.5973,92.4583 65.5,84.5C 70.1667,84.5 74.8333,84.5 79.5,84.5 Z"/></g>
<g><path style="opacity:1" fill="#e2e3e5" d="M 60.5,109.5 C 60.5,110.5 60.5,111.5 60.5,112.5C 54.8333,112.5 49.1667,112.5 43.5,112.5C 43.1977,109.627 42.531,106.961 41.5,104.5C 41.1278,97.6993 41.7944,91.0326 43.5,84.5C 49.2055,84.1712 54.8722,84.5046 60.5,85.5C 59.232,93.4868 59.232,101.487 60.5,109.5 Z"/></g>
<g><path style="opacity:1" fill="#5986c2" d="M 120.5,83.5 C 120.5,83.8333 120.5,84.1667 120.5,84.5C 114.729,83.8872 109.396,84.5539 104.5,86.5C 103.596,85.791 103.263,84.791 103.5,83.5C 109.167,83.5 114.833,83.5 120.5,83.5 Z"/></g>
<g><path style="opacity:1" fill="#111111" d="M 211.5,79.5 C 216.215,78.9618 220.548,79.9618 224.5,82.5C 216.5,91.1667 208.167,99.5 199.5,107.5C 194.158,94.1825 198.158,84.8492 211.5,79.5 Z"/></g>
<g><path style="opacity:1" fill="#144cad" d="M 80.5,58.5 C 81.1666,65.3447 81.8333,72.3447 82.5,79.5C 83.1667,72.3447 83.8334,65.3447 84.5,58.5C 84.5,65.5 84.5,72.5 84.5,79.5C 89.0323,79.8182 93.3656,79.4849 97.5,78.5C 97.1667,76.5 96.8333,74.5 96.5,72.5C 97.8641,74.22 98.8641,76.22 99.5,78.5C 100.425,79.5624 101.425,79.5624 102.5,78.5C 107.305,79.4872 112.305,79.8205 117.5,79.5C 112.684,80.3261 107.684,80.8261 102.5,81C 108.509,82.1241 114.509,82.9574 120.5,83.5C 114.833,83.5 109.167,83.5 103.5,83.5C 103.263,84.791 103.596,85.791 104.5,86.5C 104.5,94.1667 104.5,101.833 104.5,109.5C 102.955,110.23 102.122,111.563 102,113.5C 101.148,112.429 100.315,111.429 99.5,110.5C 99.8264,101.651 99.493,92.9839 98.5,84.5C 94.03,83.5139 89.3633,83.1805 84.5,83.5C 84.5,93.1667 84.5,102.833 84.5,112.5C 83.1667,112.5 81.8333,112.5 80.5,112.5C 80.8269,102.985 80.4936,93.6517 79.5,84.5C 74.8333,84.5 70.1667,84.5 65.5,84.5C 64.5973,92.4583 64.264,100.458 64.5,108.5C 63.4261,105.961 62.7595,102.628 62.5,98.5C 62.9395,93.5864 63.6062,88.753 64.5,84C 64.1667,83.8333 63.8333,83.6667 63.5,83.5C 61.9971,92.2263 60.9971,100.893 60.5,109.5C 59.232,101.487 59.232,93.4868 60.5,85.5C 54.8722,84.5046 49.2055,84.1712 43.5,84.5C 41.7944,91.0326 41.1278,97.6993 41.5,104.5C 41.631,105.239 41.4643,105.906 41,106.5C 39.1844,99.0419 39.6844,91.7085 42.5,84.5C 41.3698,83.3777 40.7031,82.0443 40.5,80.5C 41.7348,80.2786 42.7348,79.6119 43.5,78.5C 44.086,78.7093 44.586,79.0426 45,79.5C 45.2784,78.5842 45.7784,77.9175 46.5,77.5C 48.5706,78.8086 51.0706,79.4752 54,79.5C 56.6903,79.4971 59.1903,79.1638 61.5,78.5C 62.1667,78.5 62.5,78.1667 62.5,77.5C 63.1515,78.0906 63.8182,78.7573 64.5,79.5C 65.1818,78.7573 65.8485,78.0906 66.5,77.5C 70.7147,79.4364 75.3814,80.1031 80.5,79.5C 80.5,72.5 80.5,65.5 80.5,58.5 Z"/></g>
<g><path style="opacity:1" fill="#83a2cd" d="M 98.5,84.5 C 94.1667,84.5 89.8333,84.5 85.5,84.5C 85.5,93.8333 85.5,103.167 85.5,112.5C 85.1667,112.5 84.8333,112.5 84.5,112.5C 84.5,102.833 84.5,93.1667 84.5,83.5C 89.3633,83.1805 94.03,83.5139 98.5,84.5 Z"/></g>
<g><path style="opacity:1" fill="#e5e5e5" d="M 98.5,84.5 C 99.493,92.9839 99.8264,101.651 99.5,110.5C 95.2853,112.436 90.6186,113.103 85.5,112.5C 85.5,103.167 85.5,93.8333 85.5,84.5C 89.8333,84.5 94.1667,84.5 98.5,84.5 Z"/></g>
<g><path style="opacity:1" fill="#111111" d="M 242.5,78.5 C 251.831,82.3044 259.664,88.3044 266,96.5C 266.667,97.8333 266.667,99.1667 266,100.5C 248.093,121.885 225.593,129.718 198.5,124C 198.167,123.667 197.833,123.333 197.5,123C 200.464,119.164 204.13,118.497 208.5,121C 222.702,122.377 235.702,119.044 247.5,111C 251.667,107.5 255.833,104 260,100.5C 260.92,97.6917 260.087,95.5251 257.5,94C 251.974,89.6403 246.307,85.4736 240.5,81.5C 241.193,80.4822 241.859,79.4822 242.5,78.5 Z"/></g>
<g><path style="opacity:1" fill="#89a6cf" d="M 46.5,77.5 C 46.8333,77.5 47.1667,77.5 47.5,77.5C 51.97,78.4861 56.6367,78.8195 61.5,78.5C 59.1903,79.1638 56.6903,79.4971 54,79.5C 51.0706,79.4752 48.5706,78.8086 46.5,77.5 Z"/></g>
<g><path style="opacity:1" fill="#111111" d="M 208.5,70.5 C 217.108,69.8752 225.442,71.0419 233.5,74C 232.5,75 231.5,76 230.5,77C 206.206,71.9722 186.206,79.1389 170.5,98.5C 176.555,105.357 183.555,111.024 191.5,115.5C 190.573,117.946 188.906,118.779 186.5,118C 178.173,113.681 171.007,107.848 165,100.5C 164.333,99.1667 164.333,97.8333 165,96.5C 176.795,83.0303 191.295,74.3636 208.5,70.5 Z"/></g>
<g><path style="opacity:1" fill="#dbdee3" d="M 117.5,79.5 C 112.305,79.8205 107.305,79.4872 102.5,78.5C 101.432,72.1923 99.0988,66.359 95.5,61C 105.745,63.6333 113.079,69.8 117.5,79.5 Z"/></g>
<g><path style="opacity:1" fill="#101010" d="M 248.5,61.5 C 251.68,61.1762 252.847,62.5096 252,65.5C 228.833,88.6667 205.667,111.833 182.5,135C 179.333,135.833 178.167,134.667 179,131.5C 202.368,108.299 225.535,84.9653 248.5,61.5 Z"/></g>
<g><path style="opacity:1" fill="#e3e3e5" d="M 86.5,59.5 C 91.0444,62.932 94.3777,67.2653 96.5,72.5C 96.8333,74.5 97.1667,76.5 97.5,78.5C 93.5,78.5 89.5,78.5 85.5,78.5C 85.1765,71.9779 85.5098,65.6446 86.5,59.5 Z"/></g>
<g><path style="opacity:1" fill="#e2e3e5" d="M 62.5,77.5 C 62.5,78.1667 62.1667,78.5 61.5,78.5C 56.6367,78.8195 51.97,78.4861 47.5,77.5C 52.4882,68.6543 59.8216,63.1543 69.5,61C 65.6491,65.867 63.3158,71.367 62.5,77.5 Z"/></g>
<g><path style="opacity:1" fill="#5d87c3" d="M 79.5,58.5 C 79.8333,58.5 80.1667,58.5 80.5,58.5C 80.5,65.5 80.5,72.5 80.5,79.5C 75.3814,80.1031 70.7147,79.4364 66.5,77.5C 66.8333,77.5 67.1667,77.5 67.5,77.5C 71.2984,78.4834 75.2984,78.8168 79.5,78.5C 79.5,71.8333 79.5,65.1667 79.5,58.5 Z"/></g>
<g><path style="opacity:1" fill="#e3e4e5" d="M 79.5,58.5 C 79.5,65.1667 79.5,71.8333 79.5,78.5C 75.2984,78.8168 71.2984,78.4834 67.5,77.5C 68.7541,69.3027 72.7541,62.9693 79.5,58.5 Z"/></g>
<g><path style="opacity:1" fill="#8da9d0" d="M 84.5,58.5 C 85.4916,58.3284 86.1583,58.6618 86.5,59.5C 85.5098,65.6446 85.1765,71.9779 85.5,78.5C 89.5,78.5 93.5,78.5 97.5,78.5C 93.3656,79.4849 89.0323,79.8182 84.5,79.5C 84.5,72.5 84.5,65.5 84.5,58.5 Z"/></g>
<g><path style="opacity:1" fill="#f2f2f2" d="M 299.5,-0.5 C 302.167,-0.5 304.833,-0.5 307.5,-0.5C 307.5,65.8333 307.5,132.167 307.5,198.5C 204.833,198.5 102.167,198.5 -0.5,198.5C -0.5,195.833 -0.5,193.167 -0.5,190.5C -0.166667,190.5 0.166667,190.5 0.5,190.5C 0.743808,193.263 2.07714,195.429 4.5,197C 103.167,197.667 201.833,197.667 300.5,197C 303.079,195.924 304.746,194.091 305.5,191.5C 306.665,129.668 306.832,67.668 306,5.5C 304.564,2.55813 302.397,0.55813 299.5,-0.5 Z"/></g>
</svg>
